<svg height="512pt" viewBox="0 -16 512 512" width="512pt" xmlns="http://www.w3.org/2000/svg"><path d="m246.175781 450.835938 9.824219 8.515624 9.824219-8.515624c44.714843-38.757813 80.597656-62.746094 80.597656-99.941407 0-31.0625-23.371094-55.394531-53.210937-55.394531-14.488282 0-27.234376 5.894531-37.210938 17.125-9.976562-11.230469-22.722656-17.125-37.210938-17.125-29.277343 0-52.210937 24.332031-52.210937 55.394531 0 38.113281 34.613281 60.953125 79.597656 99.941407zm-49.597656-99.941407c0-12.621093 7.628906-25.394531 22.210937-25.394531 16.09375 0 22.324219 19.816406 22.765626 21.292969l14.390624 55.292969 14.5-55.292969c.4375-1.457031 6.664063-21.292969 22.765626-21.292969 13.015624 0 23.210937 11.152344 23.210937 25.394531 0 19.644531-24.925781 38.667969-60.421875 68.84375-37.769531-32.117187-59.421875-48.558593-59.421875-68.84375zm0 0"/><path d="m411.636719 82.210938 18.183593-15.589844c-6.9375-3.992188-67.609374-66.621094-173.820312-66.621094-106.074219 0-166.703125 62.523438-173.824219 66.621094l18.1875 15.589844c-63.1875 48.144531-100.363281 122.570312-100.363281 202.789062v165h60v30h90v-210h-90v30h-30v-15c0-72.941406 34.851562-140.4375 93.746094-182.746094l27.769531 23.804688c4.933594-2.523438 41.675781-36.058594 104.484375-36.058594 61.988281 0 100.101562 33.820312 104.480469 36.058594l27.769531-23.804688c58.898438 42.308594 93.75 109.804688 93.75 182.746094v15h-30v-30h-90v210h90v-30h60c0-14.277344 0-145.519531 0-165 0-80.21875-37.175781-154.644531-100.363281-202.789062zm-291.636719 367.789062h-30c0-16.898438 0-135.054688 0-150h30zm-60-120v90h-30c0-10.5625 0-76.128906 0-90zm298.277344-241.566406c-30.355469-18.398438-66.238282-28.433594-102.277344-28.433594s-71.921875 10.035156-102.277344 28.433594l-23.84375-20.4375c36.890625-24.609375 81.015625-37.996094 126.121094-37.996094s89.230469 13.386719 126.121094 37.996094zm63.722656 361.566406h-30v-150h30zm60-30h-30v-90h30zm0 0"/></svg>