<?xml version="1.0" encoding="iso-8859-1"?>
<!-- Generator: Adobe Illustrator 19.0.0, SVG Export Plug-In . SVG Version: 6.00 Build 0)  -->
<svg version="1.1" id="Capa_1" xmlns="http://www.w3.org/2000/svg" xmlns:xlink="http://www.w3.org/1999/xlink" x="0px" y="0px"
	 viewBox="0 0 467.2 467.2" style="enable-background:new 0 0 467.2 467.2;" xml:space="preserve">
<g>
	<g>
		<g>
			<path d="M131.4,232.4c2,0,4-1.2,4.8-3.2c5.2,11.6,12.8,22,21.6,31.2c19.6,19.6,46.4,31.6,76,31.6c29.6,0,56.8-12,76-31.6
				c1.2-1.2,2.4-2.4,3.2-3.6h43.6c5.6,0,10.4-1.6,13.6-5.2c3.2-3.6,4.8-8.4,4.4-15.2v-22.8c6.4-8.4,10.4-18.8,10.4-30v-0.4v-19.6
				c0-17.6-3.2-35.2-9.2-51.6c-5.6-15.2-13.6-29.6-23.6-42c1.6-2.8,2.4-6,2.4-9.2c0-4.4-1.6-9.2-5.2-12.8
				c-15.6-15.6-33.6-27.6-53.2-35.6C276.2,4,254.6,0,233.4,0s-42.8,4-62.8,12.4c-19.2,8-37.2,20-53.2,35.6c-3.6,3.6-5.2,8-5.2,12.4
				c0,3.2,0.8,6.4,2.4,9.2c-10,12.8-18,27.2-23.6,42c-4,13.2-7.2,27.2-8,41.2c-0.4,0.8-0.4,1.2-0.4,2v8.8v20
				c0,13.6,5.6,25.6,14.4,34.4C105.8,226.8,117.8,232.4,131.4,232.4z M308.2,246H263c-0.8-3.2-2.8-6.4-5.2-8.8c-3.6-3.6-8.4-6-14-6
				h-20c-5.6,0-10.4,2.4-14,6c-3.6,3.6-6,8.4-6,14c0,5.6,2.4,10.4,6,14c3.6,3.6,8.4,6,14,6h20c5.6,0,10.4-2.4,14-6
				c2.4-2.4,4-5.2,5.2-8.8h34.8c-17.2,15.2-39.6,24.4-64,24.4c-26.8,0-51.2-10.8-68.4-28.4C147.8,234.8,137,210.8,137,184
				s10.8-51.2,28.4-68.4C183,98,207,87.2,233.8,87.2S285,98,302.2,115.6c17.6,17.6,28.4,41.6,28.4,68.4
				C330.6,207.6,322.2,229.2,308.2,246z M253,251.2c0,2.4-1.2,4.8-2.8,6.4c-1.6,1.6-4,2.8-6.4,2.8h-20c-2.4,0-4.8-1.2-6.4-2.8
				c-1.6-1.6-2.8-4-2.8-6.4c0-2.4,1.2-4.8,2.8-6.4c1.6-1.6,4-2.8,6.4-2.8h20c2.4,0,4.8,1.2,6.4,2.8C251.8,246.4,253,248.8,253,251.2
				z M362.2,244.4c-1.2,1.2-2.8,1.6-5.6,1.6h-34.8c3.6-5.2,7.2-10.8,9.6-16.8c0.8,1.6,2.8,3.2,4.8,3.2c10.4,0,20-3.2,27.6-8.8
				l0.4,12.8C364.2,240.4,363.4,242.8,362.2,244.4z M363.4,210c-5.6,5.6-13.2,9.6-21.6,10.8v-37.6v-37.6c8.4,1.2,16,5.2,21.6,10.8
				c6.8,6.8,10.8,16.4,11.2,26.8C374.6,193.6,370.2,203.2,363.4,210z M125.4,55.2C140.2,40.4,157,29.6,175,22
				c18.8-7.6,38.8-11.6,58.8-11.6s40,4,58.8,11.6c18,7.6,34.8,18.4,49.6,33.2c1.2,1.2,2,3.2,2,5.2s-0.8,3.6-2,5.2
				c-1.2,1.2-3.2,2-5.2,2c-1.6,0-3.6-0.8-4.8-2c0,0,0-0.4-0.4-0.4C318.6,52,303.4,42,287,35.2c-17.2-7.2-35.2-10.4-53.2-10.4
				s-36,3.6-53.2,10.4C164.2,42,149,52,135.4,65.2c0,0,0,0-0.4,0.4c-1.2,1.2-3.2,2-4.8,2c-2,0-3.6-0.8-5.2-2c-1.2-1.2-2-3.2-2-5.2
				C123.4,58.4,124.2,56.8,125.4,55.2z M101.8,115.2c5.2-14,12.4-27.2,21.6-38.8c2.4,1.2,4.8,1.6,7.2,1.6c4.4,0,8.8-1.6,12.4-4.8
				l0.4-0.4c12.4-12.4,26.4-21.6,41.2-27.6c15.6-6.4,32.4-9.6,49.2-9.6s33.6,3.2,49.2,9.6c15.2,6.4,29.2,15.6,41.6,27.6
				c3.6,3.6,8,5.2,12.4,5.2c2.4,0,5.2-0.4,7.2-1.6c9.2,11.6,16.4,24.8,21.6,38.8c4.4,12,7.2,24.4,8,37.2c-0.8-1.2-2-2.4-3.2-3.6
				c-8.8-8.8-20.8-14.4-34.4-14.4c-2.4,0-4.4,1.6-5.2,3.6c-5.2-11.2-12.8-21.6-21.6-30.4C289.8,88,263,76,233.4,76
				c-29.6,0-56.8,12-76,31.6c-8.8,8.8-16,19.2-21.6,30.4c-0.8-2-2.8-3.6-5.2-3.6c-13.6,0-25.6,5.6-34.4,14.4c-1.2,1.2-2,2.4-3.2,3.6
				C94.6,139.6,97.4,127.2,101.8,115.2z M104.2,156.4c5.6-5.6,13.2-9.6,21.6-10.8v37.6v37.6c-8.4-1.2-16-5.2-21.6-10.8
				c-6.8-6.8-11.2-16.4-11.2-26.8C93,172.8,97.4,163.2,104.2,156.4z"/>
			<path d="M391,354c-27.6-27.2-65.6-44.4-107.6-44.4h-99.2c-42,0-80,17.2-108,44.8C48.6,382,31.4,420,31.4,462
				c0,2.8,2.4,5.2,5.2,5.2h394c2.8,0,5.2-2.4,5.2-5.2C435.8,420,418.6,382,391,354z M42.2,456.4c1.2-36.8,17.2-70.4,41.6-94.8
				C109.8,336,145,320,184.2,320h99.2c39.2,0,74.4,16,100.4,41.6c24.4,24.4,40.4,58,41.6,94.8H42.2z"/>
		</g>
	</g>
</g>
<g>
</g>
<g>
</g>
<g>
</g>
<g>
</g>
<g>
</g>
<g>
</g>
<g>
</g>
<g>
</g>
<g>
</g>
<g>
</g>
<g>
</g>
<g>
</g>
<g>
</g>
<g>
</g>
<g>
</g>
</svg>
